<svg width="655" height="530" viewBox="0 0 655 530" fill="none" xmlns="http://www.w3.org/2000/svg">
<path fill-rule="evenodd" clip-rule="evenodd" d="M20.1752 483.05C-59.0938 398.433 122.917 327.977 92.1113 208.795C61.306 89.6129 -6.25812 -45.0506 280.5 14.6106C420.416 43.7209 511.916 39.8851 587.929 87.1281C669.76 137.988 528.273 237.16 639.628 380.677C763.595 540.448 99.4443 567.666 20.1752 483.05Z" fill="#F2F2F2"/>
<path d="M141.125 431.211C138.995 424.515 111.895 434.96 102.348 436.345C99.7971 436.715 111.515 143.127 121.062 75.1101C121.703 70.5419 124.971 64.4544 129.112 66.5179C134.97 69.4371 141.836 69.2521 148.382 69.0186C266.768 64.7947 385.349 65.9894 503.625 72.5977C507.623 72.821 511.956 73.1832 514.934 75.8493C517.776 78.3928 518.669 82.4013 519.386 86.1397C533.037 157.379 534.829 380.417 529.527 452.75C525.504 452.719 498.418 447.761 498.418 447.761C498.418 447.761 148.382 420.416 141.125 431.211Z" fill="white"/>
<path fill-rule="evenodd" clip-rule="evenodd" d="M300.939 299.651C296.003 353.044 290.573 406.391 284.651 459.683C284.492 461.111 283.923 462.936 282.481 462.954C201.284 463.967 120.064 463.151 38.9044 460.507C38.0444 460.479 37.1058 460.42 36.4685 459.844C35.6412 459.097 35.6666 457.817 35.7555 456.707C40.1889 401.407 44.6222 346.107 49.0555 290.806C50.0144 289.652 51.7158 289.529 53.2197 289.496C133.207 287.75 213.255 286.005 293.196 289.216C295.077 289.291 297.079 289.41 298.6 290.513C301.277 292.453 301.243 296.368 300.939 299.651Z" fill="white"/>
<path fill-rule="evenodd" clip-rule="evenodd" d="M473.522 125.388C474.788 126.359 475.277 128.008 475.687 129.547C489.24 180.373 495.615 233.094 494.567 285.674C494.445 291.786 494.553 298.722 499.074 302.856C502.21 244.943 495.816 186.529 480.225 130.65C478.765 125.419 482.773 120.382 486.491 116.412L512.597 88.532C524.864 136.985 528.415 187.012 528.376 237.11C526.152 241.068 523.97 245.051 522.228 249.188C518.178 258.811 516.535 269.283 515.776 279.698C512.913 319.021 522.241 358.348 535.87 395.34C536.576 397.256 537.364 399.266 538.969 400.526C540.536 401.757 542.616 402.061 544.594 402.297C563.943 404.605 583.583 404.458 602.896 401.862C604.588 401.634 606.385 401.34 607.659 400.201C608.804 399.177 609.327 397.644 609.787 396.177C619.402 365.479 620.938 332.916 622.265 300.772C623.063 281.432 623.372 260.514 612.224 244.699C610.283 241.945 608.037 239.423 605.793 236.903C603.172 233.96 600.553 231.019 598.422 227.713C594.034 220.906 591.902 212.667 592.435 204.583C592.909 197.392 584.451 193.21 577.358 191.98C577.009 191.92 576.66 191.862 576.309 191.806C576.436 189.527 576.563 187.934 576.69 187.896C582.717 186.069 588.512 183.483 593.89 180.212C596.833 178.423 600.032 175.12 598.444 172.069C597.147 169.579 593.628 169.453 590.877 170.041C586.448 170.988 582.229 172.899 578.601 175.603C580.54 166.948 584.723 158.802 590.633 152.173C588.217 155.945 591.537 161.659 596.018 161.927C600.499 162.196 604.412 157.632 603.991 153.177C605.788 156.822 610.779 158.482 614.412 156.642C618.045 154.802 619.643 149.805 617.75 146.208C620.64 149.027 626.027 148.621 628.416 145.37C630.806 142.119 629.527 136.831 625.891 135.068C628.318 135.304 630.859 135.525 633.114 134.599C635.369 133.674 637.186 131.201 636.505 128.867C636.085 127.431 634.859 126.388 633.624 125.539C629.743 122.871 625.148 121.244 620.448 120.876C621.852 119.536 623.523 118.534 625.196 117.532C626.632 116.671 628.069 115.809 629.341 114.732C632.094 112.399 633.957 108.182 631.888 105.23C630.397 103.104 627.372 102.524 624.852 103.168C622.332 103.813 620.193 105.43 618.129 107.011L620.998 97.0568C621.67 94.7234 622.259 91.9469 620.699 90.0833C618.508 87.4679 614.046 89.0179 611.877 91.6512C611.011 92.7027 610.308 93.8884 609.607 95.0704C608.553 96.8483 607.504 98.6179 605.912 99.9103C605.82 97.0931 605.696 94.1562 604.333 91.6861C602.971 89.216 599.962 87.4024 597.298 88.3462C595.351 89.0359 594.126 90.9393 593.25 92.8044C590.505 98.6452 589.755 105.395 591.148 111.693C587.677 108.952 583.03 107.443 578.728 108.488C574.426 109.533 570.778 113.507 570.889 117.92C571 122.333 575.57 126.317 579.851 125.186C576.782 126.1 573.602 127.074 571.229 129.219C568.857 131.364 567.553 135.041 569.102 137.835C571.13 141.491 576.357 141.547 580.45 140.65C585.636 139.513 590.656 137.626 595.304 135.067L587.753 148.061C582.106 157.778 574.779 173.207 572.69 191.33C566.334 190.677 559.859 191.021 553.954 193.359C546.594 196.272 540.298 202.767 539.32 210.629C538.611 216.333 536.56 221.617 534.008 226.756C533.028 180.252 528.141 133.828 519.386 88.1386C518.67 84.4002 517.776 80.3917 514.935 77.8482C511.956 75.1821 507.623 74.8199 503.625 74.5966C385.349 67.9883 266.768 66.7936 148.382 71.0175C141.836 71.251 134.97 71.436 129.112 68.5168C124.971 66.4533 121.703 72.5408 121.062 77.109C111.515 145.126 105.268 213.602 102.348 282.218C102.25 284.521 103.568 287.859 105.657 286.868C109.077 216.157 116.088 145.618 126.652 75.6116L146.599 103.733C148.022 105.74 149.511 107.963 149.346 110.415L139.59 255.796C138.994 264.677 138.426 273.805 141.125 282.29C147.35 227.368 151.433 172.205 153.362 116.968C153.498 113.064 158.597 111.737 162.514 111.547C264.906 106.576 367.411 115.424 469.54 124.264C470.935 124.385 472.414 124.537 473.522 125.388ZM572.457 193.609C564.825 192.792 556.841 195.349 549.864 198.889C547.261 200.209 544.36 202.308 544.604 205.22C544.854 208.209 548.221 209.779 551.126 210.516C561.725 213.206 573.066 212.903 583.507 209.651C586.116 208.838 589.06 207.391 589.475 204.686C589.951 201.585 586.826 199.242 584.076 197.736C582.081 196.645 580.061 195.58 577.916 194.828C577.342 194.626 576.764 194.449 576.182 194.294C576.124 195.497 576.067 196.783 576.009 198.069C575.781 203.141 575.552 208.22 575.324 208.285C574.38 208.551 573.432 208.799 572.479 209.028C571.974 203.74 572.012 198.58 572.457 193.609ZM522.167 256.754C523.652 251.908 525.889 247.352 528.356 242.889C528.249 260.36 527.73 277.832 527.016 295.242C526.851 299.246 527.959 304.702 531.982 304.734C533.734 280.823 534.443 256.837 534.114 232.865C537.69 226.578 540.937 220.187 542.366 213.137C557.538 217.984 574.457 217.12 589.058 210.753C590.5 218.096 593.405 225.148 597.551 231.374C599.637 234.505 602.033 237.433 604.426 240.356L604.427 240.357C608.215 244.986 611.996 249.605 614.518 255.001C618.276 263.041 618.927 272.146 619.242 281.016C620.553 317.996 617.03 355.145 608.788 391.217C608.066 394.379 606.655 398.161 603.443 398.594C584.523 401.144 565.306 401.477 546.309 399.584C544.362 399.39 542.277 399.112 540.824 397.8C539.49 396.595 538.96 394.758 538.49 393.022C528.107 354.673 517.635 315.575 519.375 275.881C519.658 269.426 520.275 262.931 522.167 256.754ZM358.827 72.9955L510.266 80.3692C500.823 92.3988 490.951 104.094 480.673 115.424C476.824 119.669 470.241 119.626 464.511 119.249C446.991 118.094 429.464 116.831 411.932 115.567C327.156 109.458 242.263 103.34 157.581 109.384C155.611 109.524 154.184 107.616 153.163 105.931L133.676 73.7755C194.497 76.19 255.432 75.7282 316.209 72.392C330.401 71.613 344.629 72.3042 358.827 72.9955ZM310.682 135.623C313.195 134.564 315.807 133.477 318.535 133.573C320.757 133.651 322.866 134.511 324.923 135.353C361.14 150.176 398.092 163.215 435.601 174.405C441.269 176.096 442.831 183.214 443.415 189.08L454.928 304.642C457.401 304.374 457.844 301.003 457.605 298.536L446.066 179.529C447.939 179.247 449.76 180.038 451.517 180.801C451.63 180.85 451.742 180.899 451.855 180.947L452.002 181.011L452.125 181.063C454.069 181.891 456.371 182.533 458.229 181.528C460.086 180.522 460.4 177.177 458.372 176.581C413.168 163.306 368.425 148.477 324.248 132.128C322.38 131.436 320.462 130.733 318.469 130.743C316.587 130.753 314.774 131.399 313.004 132.037L174.73 181.913C174.11 184.511 178.233 185.473 180.676 184.374C181.048 184.206 181.429 184.022 181.816 183.834C183.97 182.792 186.3 181.665 188.181 182.934C185.106 213.446 182.526 244.007 180.44 274.602C180.243 277.492 181.126 281.536 184.025 281.318L191.321 185.488C191.529 182.757 192.18 179.432 194.797 178.59C234.033 165.972 272.711 151.632 310.682 135.623ZM396.343 424.204C398.332 424.17 400.833 423.763 401.354 421.85C400.509 420.243 398.329 420.027 396.509 420.017L314.571 419.529C307.175 419.485 299.642 419.46 292.576 421.639C293.063 423.293 295.219 423.649 296.948 423.696C330.071 424.588 363.213 424.758 396.343 424.204ZM310.843 436.87C304.353 436.792 297.768 436.701 291.537 434.888C325.939 433.711 360.377 433.595 394.786 434.542C397.712 434.622 400.858 434.786 403.161 436.586C402.693 437.771 401.111 437.947 399.832 437.931L310.843 436.87ZM394.635 389.158C363.676 390.35 332.634 389.377 301.812 386.248C299.712 386.035 296.859 386.35 296.548 388.43C329.993 392.427 363.749 393.835 397.412 392.638C397.867 390.975 396.364 389.092 394.635 389.158ZM370.407 271.454C371.833 272.699 372.117 274.767 372.307 276.646L379.197 344.659C385.482 344.444 391.803 345.328 397.786 347.259L379.754 350.438C383.997 356.919 387.286 364.018 389.484 371.438C362.768 371.205 336.059 370.195 309.402 368.409C307.849 368.305 306.096 368.094 305.166 366.851C304.026 365.329 304.757 363.182 305.524 361.444L310.647 349.828C311.463 347.979 308.567 346.692 306.576 347.072C306.384 347.109 306.188 347.149 305.988 347.189C304.113 347.567 301.953 348.003 300.885 346.519C299.229 344.217 303.006 341.667 305.832 341.978C306.376 342.037 306.939 342.126 307.509 342.216C309.903 342.593 312.406 342.987 313.972 341.314C314.938 317.995 317.109 294.725 320.474 271.628C320.608 270.709 320.794 269.7 321.524 269.123C322.185 268.6 323.102 268.586 323.946 268.597C337.877 268.777 351.804 269.282 365.711 270.11C367.369 270.208 369.159 270.363 370.407 271.454ZM365.345 273.59C352.636 272.442 339.897 271.611 327.146 271.098C326.05 271.054 324.848 271.046 323.996 271.732C323.08 272.469 322.875 273.755 322.736 274.92C320.173 296.521 318.55 318.233 317.873 339.974C317.848 340.782 317.868 341.702 318.472 342.244C318.933 342.659 319.603 342.723 320.224 342.766C337.491 343.97 354.791 344.701 372.098 344.958C372.886 344.969 373.767 344.945 374.325 344.39C374.931 343.787 374.904 342.818 374.835 341.967L369.597 277.394C369.53 276.569 369.447 275.699 368.968 275.023C368.194 273.929 366.684 273.711 365.345 273.59ZM377.996 353.468C377.555 352.684 377.07 351.876 376.3 351.41C375.545 350.953 374.624 350.891 373.743 350.84L320.688 347.781C319.051 347.686 317.276 347.628 315.93 348.56C314.842 349.312 314.246 350.572 313.698 351.773L308.976 362.115C308.698 362.725 308.425 363.46 308.778 364.03C309.129 364.595 309.903 364.685 310.57 364.714L384.396 367.998C382.742 362.963 380.595 358.089 377.996 353.468ZM289.027 184.105C289.967 187.556 291.918 190.686 294.372 193.296C302.366 201.796 316.057 204.313 326.599 199.277C337.141 194.24 343.737 182.079 342.255 170.525C340.773 158.971 331.367 148.875 319.926 146.476C313.306 145.087 306.235 147.409 301.027 151.711C295.818 156.012 292.332 162.105 290.202 168.502C288.529 173.525 287.637 178.998 289.027 184.105ZM336.281 172.179C330.652 172.671 324.989 172.784 319.344 172.519C318.871 172.497 318.366 172.461 317.991 172.173C317.423 171.736 317.375 170.916 317.376 170.201L317.396 155.552C317.397 154.602 317.43 153.563 318.051 152.842C319.275 151.421 321.605 152.291 323.139 153.374C329.521 157.88 334.254 164.653 336.281 172.179ZM298.559 173.537C298.135 173.571 297.685 173.601 297.306 173.409C296.317 172.909 296.536 171.452 296.946 170.426C300.159 162.387 306.194 155.499 313.755 151.242L313.807 170.853C313.808 171.283 313.79 171.762 313.485 172.066C313.212 172.338 312.793 172.384 312.409 172.415L298.559 173.537ZM296.774 182.923C295.789 181.349 295.23 178.817 296.912 178.023C297.469 177.76 298.115 177.803 298.729 177.851L311.183 178.833C312.373 178.927 313.74 179.123 314.369 180.134C314.703 180.669 314.749 181.327 314.786 181.956L315.406 192.426C315.442 193.04 315.449 193.736 315.009 194.167C314.515 194.653 313.708 194.563 313.031 194.412C306.374 192.926 300.381 188.691 296.774 182.923ZM318.142 192.547L317.737 181.959C317.708 181.203 317.722 180.34 318.288 179.837C318.797 179.385 319.557 179.401 320.237 179.442L335.165 180.361C331.906 185.655 327.275 190.104 321.846 193.156C320.528 193.897 318.2 194.053 318.142 192.547ZM229.463 160.711C226.832 159.056 226.963 155.258 227.407 152.189L229.197 139.814C229.508 137.66 230.77 134.829 232.876 135.406C234.679 135.901 234.785 138.38 234.507 140.222L232.268 155.039C231.941 157.206 231.405 159.681 229.463 160.711ZM171.988 348.509C172.267 347.29 172.785 346.008 173.881 345.399C175.56 344.467 177.781 345.677 178.616 347.401C179.45 349.126 179.288 351.142 179.107 353.048C178.964 354.557 178.797 356.136 177.95 357.395C177.104 358.654 175.344 359.443 174.014 358.709C173.155 358.234 172.693 357.276 172.381 356.349C171.536 353.837 171.398 351.092 171.988 348.509ZM208.275 117.374C205.212 118.937 205.005 123.146 205.218 126.568C205.344 128.583 205.704 130.967 207.526 131.852C208.229 132.194 209.035 132.237 209.817 132.271C218.062 132.63 226.317 132.745 234.569 132.614C235.718 132.596 236.937 132.553 237.898 131.924C239.446 130.91 239.75 128.813 239.907 126.974C240.072 125.039 240.23 123.04 239.617 121.196C239.004 119.353 237.41 117.688 235.462 117.616L212.727 116.781C211.214 116.725 209.623 116.686 208.275 117.374ZM210.308 129.191C209.684 128.83 209.513 128.026 209.403 127.316C209.049 125.023 209.002 122.093 211.085 121.057C211.909 120.647 212.874 120.671 213.795 120.704L228.447 121.228C230.411 121.298 232.481 121.4 234.137 122.454C235.792 123.509 236.779 125.871 235.674 127.49C234.679 128.948 232.626 129.116 230.857 129.14L211.585 129.404C211.148 129.41 210.686 129.41 210.308 129.191ZM107.689 342.938C110.909 348.282 108.501 355.08 106.261 360.9C102.284 371.237 99.0715 383.043 103.713 393.102C104.765 395.383 106.097 398.356 104.277 400.091C98.2942 394.484 96.8695 385.406 98.0829 377.313C98.906 371.823 100.748 366.573 102.592 361.319L102.592 361.318L102.592 361.318L102.592 361.318L102.593 361.317L102.593 361.317L102.593 361.317L102.593 361.316L102.593 361.316L102.593 361.316L102.593 361.315L102.593 361.315L102.593 361.314L102.594 361.314L102.594 361.314L102.594 361.313C103.468 358.824 104.342 356.333 105.108 353.815C105.795 351.555 106.399 349.147 105.819 346.857C105.069 343.897 102.464 341.733 99.6852 340.447C94.6045 338.097 87.9948 338.297 83.985 342.194C79.9752 346.091 80.2472 353.917 85.2089 356.507C87.368 357.635 90.2887 357.542 91.9972 355.81C93.7057 354.078 93.4656 350.672 91.274 349.609C94.2052 348.898 97.1732 351.367 98.0024 354.257C98.8317 357.146 98.0577 360.24 97.0613 363.077C96.2105 365.499 95.1932 367.88 94.1767 370.259C91.9615 375.443 89.7504 380.618 89.2759 386.191C88.6603 393.422 91.0397 400.485 93.3706 407.404C93.6108 408.117 93.8505 408.829 94.0864 409.539C94.6453 411.222 95.0998 413.312 93.8479 414.571C86.88 406.981 84.9649 395.83 86.4022 385.644C87.8394 375.459 92.2244 365.954 96.558 356.618C95.3891 356.717 94.3759 357.337 93.3608 357.959C92.9375 358.219 92.514 358.478 92.0786 358.7C86.8302 361.376 79.7287 357.689 78.1362 352.033C76.5437 346.378 79.9335 340.035 85.1754 337.346C90.4172 334.657 96.9674 335.286 102.164 338.06C104.36 339.232 106.407 340.81 107.689 342.938ZM217.082 135.337C216.664 134.169 215.585 133.141 214.341 133.19C212.17 133.274 211.426 136.077 211.296 138.238L210.004 159.613C209.924 160.947 209.887 162.425 210.746 163.452C211.604 164.48 213.693 164.394 213.94 163.08C215.436 155.118 216.554 147.087 217.288 139.02C217.401 137.785 217.499 136.505 217.082 135.337ZM129.138 418.285C125.872 418.718 123.73 422.404 124.233 425.648C124.736 428.892 127.282 431.525 130.209 433.033C130.974 433.427 130.629 434.735 129.82 435.033C129.012 435.33 128.119 434.946 127.384 434.498C124.199 432.557 121.93 429.188 121.333 425.516C120.957 423.21 121.291 420.649 122.861 418.912C124.43 417.175 127.44 416.674 129.138 418.285ZM211.736 368.587L211.736 368.588C210.737 371.768 209.737 374.949 208.999 378.195C205.482 393.662 208.05 409.856 211.975 425.225C212.995 429.219 208.534 433.149 204.451 432.486C200.368 431.824 197.458 427.766 197.058 423.664C197.014 423.213 196.993 422.754 196.972 422.295V422.295L196.972 422.294C196.913 420.987 196.854 419.677 196.26 418.529C195.459 416.977 193.091 416.08 191.96 417.413C194.453 422.02 196.299 429.024 191.626 431.415C187.152 433.703 182.388 428.418 181.241 423.54C180.525 420.492 178.2 416.221 175.622 418.01C176.605 419.728 177.363 421.585 178.118 423.436C179.371 426.505 180.618 429.56 182.877 431.947C186.5 435.772 194.507 435.97 195.785 430.868C198.538 433.126 201.716 435.061 205.252 435.524C208.788 435.987 212.72 434.697 214.617 431.688C216.983 427.933 215.592 423.113 214.352 418.816L214.23 418.395C210.416 405.138 210.002 390.924 213.038 377.468C213.692 374.569 214.503 371.701 215.314 368.835L215.314 368.835L215.315 368.835L215.315 368.835L215.315 368.834L215.315 368.834L215.315 368.834L215.315 368.833L215.315 368.833L215.315 368.833L215.315 368.833L215.315 368.832L215.315 368.832L215.316 368.832L215.316 368.832L215.316 368.831L215.316 368.831C216.717 363.879 218.118 358.932 218.704 353.83C219.801 344.278 217.921 334.407 213.388 325.919C212.15 323.6 208.46 324.023 206.58 325.864C205.379 327.041 204.626 328.55 203.87 330.065C203.443 330.922 203.014 331.78 202.504 332.581C201.09 334.798 198.374 336.708 195.944 335.69C191.889 333.991 187.431 334.316 182.974 334.64H182.974H182.973H182.973H182.973H182.973H182.972H182.972H182.972H182.971H182.971H182.971H182.971H182.97H182.97H182.97H182.969C181.281 334.764 179.593 334.887 177.926 334.9C171.86 334.946 164.636 332.324 163.577 326.373C163.119 323.802 159.439 322.982 157.229 324.385C155.018 325.788 154.023 328.457 153.325 330.974C150.078 342.693 150.214 355.323 153.712 366.97C154.826 370.68 149.823 372.968 146.039 373.855C119.813 380.002 98.0221 402.01 92.2106 428.218C91.8336 429.918 92.6711 432.611 94.2375 431.839C99.6092 404.295 123.263 381.237 151.022 376.486C154.515 375.888 156.723 372.181 156.993 368.66C157.206 365.891 156.536 363.166 155.869 360.452C155.688 359.714 155.507 358.977 155.344 358.24C153.072 347.976 154.331 336.97 158.861 327.478C163.328 329.761 166.503 334.384 167.018 339.36C176.819 337.33 187.058 337.427 196.819 339.642C200.271 340.426 202.249 337.215 204.31 333.869C206.2 330.799 208.161 327.617 211.393 327.301C215.493 336.452 216.748 346.844 214.942 356.703C214.202 360.742 212.969 364.664 211.736 368.587ZM198.96 374.055L193.692 371.567C192.248 370.885 190.758 370.168 189.729 368.951C195.068 368.693 200.481 370.505 204.581 373.922C203.441 375.624 200.816 374.932 198.96 374.055ZM163.936 434.522C163.652 430.515 163.165 426.523 162.477 422.564C162.202 420.985 161.833 419.294 160.643 418.215C159.452 417.137 157.172 417.167 156.538 418.641C159.377 419.926 160.305 423.483 160.408 426.589C160.427 427.158 160.431 427.735 160.436 428.313C160.456 430.892 160.477 433.511 161.77 435.698C162.024 436.129 162.404 436.575 162.906 436.571C163.771 436.565 163.997 435.382 163.936 434.522ZM179.571 363.103C176.446 365.132 172.735 366.254 169.005 366.295C167.801 366.308 166.394 366.091 165.812 365.041C169.931 362.697 174.96 361.988 179.571 363.103ZM192.633 350.245C192.193 352.165 192.408 354.228 193.234 356.017C193.842 357.335 195.323 358.641 196.599 357.941C197.153 357.637 197.466 357.035 197.71 356.453C198.534 354.492 198.939 352.358 198.893 350.233C198.867 349.051 198.628 347.738 197.673 347.035C195.767 345.631 193.161 347.942 192.633 350.245ZM419.895 202.37C421.202 203.534 421.388 205.471 421.486 207.214L423.677 246.332C423.825 248.985 423.136 252.613 420.469 252.667L362.022 253.857C361.099 253.876 360.096 253.869 359.367 253.305C358.483 252.62 358.32 251.374 358.227 250.262L354.902 210.517C354.695 208.05 355.142 204.715 357.606 204.398C376.766 201.935 396.107 200.867 415.422 201.204C416.998 201.232 418.72 201.323 419.895 202.37ZM391.403 211.087C391.541 210.121 391.636 209.008 390.966 208.296C390.328 207.617 389.27 207.602 388.336 207.634L362.212 208.542C361.665 208.561 361.063 208.602 360.668 208.981C360.171 209.457 360.215 210.247 360.295 210.93L361.78 223.631C362.035 225.811 363.259 228.707 365.387 228.134C372.582 226.195 380.118 225.516 387.546 226.137C388.861 226.246 389.479 224.576 389.664 223.275L391.403 211.087ZM388.576 244.533L389.219 233.567C389.264 232.788 389.277 231.911 388.737 231.345C388.261 230.846 387.507 230.755 386.818 230.702C379.34 230.129 371.786 230.567 364.425 232C363.974 232.088 363.5 232.192 363.16 232.5C362.591 233.016 362.601 233.895 362.653 234.66L363.428 245.951C363.508 247.116 363.704 248.475 364.728 249.044C365.389 249.411 366.2 249.323 366.95 249.223L386.883 246.588C387.26 246.538 387.656 246.48 387.959 246.25C388.461 245.869 388.539 245.16 388.576 244.533ZM394.474 209.812L393.654 223.113C393.617 223.703 393.602 224.36 393.988 224.809C394.468 225.366 395.325 225.343 396.059 225.274L415 223.484C415.509 223.436 416.057 223.371 416.433 223.025C416.874 222.619 416.938 221.958 416.973 221.36L417.721 208.603C417.75 208.11 417.76 207.56 417.432 207.189C417.053 206.762 416.397 206.76 415.826 206.791L396.615 207.833C395.981 207.867 395.271 207.937 394.863 208.423C394.548 208.799 394.504 209.324 394.474 209.812ZM416.684 244.52C417.739 243.503 417.727 241.843 417.641 240.383L417.15 232.073C417.068 230.674 416.503 228.821 415.1 228.925L396.042 230.345C395.328 230.398 394.524 230.498 394.093 231.068C393.768 231.497 393.752 232.077 393.75 232.614L393.697 243.587C393.694 244.248 393.718 244.979 394.174 245.458C394.614 245.921 395.315 245.997 395.953 246.038C401.859 246.422 407.801 246.267 413.679 245.577C414.754 245.451 415.906 245.27 416.684 244.52ZM186.887 360.252C185.256 359.432 183.062 359.971 182 361.451C180.785 363.145 181.301 365.812 183.061 366.935C184.821 368.057 187.468 367.408 188.504 365.599C189.539 363.79 188.753 361.19 186.887 360.252ZM207.202 363.549C208.174 364.361 206.579 365.686 205.322 365.859C200.615 366.507 195.756 366.038 191.261 364.503C192.936 362.74 195.704 362.738 198.138 362.861L206.163 363.268C206.528 363.286 206.922 363.316 207.202 363.549ZM175.935 367.335L168.454 371.456C167.472 371.997 166.332 373.074 166.938 374.014C167.502 374.889 168.854 374.461 169.758 373.941L179.09 368.581C179.286 367.838 178.785 366.985 178.039 366.792C177.32 366.606 176.586 366.977 175.935 367.335ZM257.812 303.539C258.533 302.684 259.316 301.787 260.389 301.466C261.463 301.145 262.876 301.707 263.012 302.815C260.067 307.007 256.411 310.702 252.247 313.695C252.638 309.795 255.281 306.539 257.812 303.539ZM262.544 311.836L268.752 305.098C269.435 304.357 270.157 303.287 269.612 302.439C268.84 301.239 267 302.295 266.065 303.375L258.769 311.801C258.49 312.64 259.518 313.439 260.396 313.308C261.273 313.178 261.944 312.487 262.544 311.836ZM208.837 204.746C209.976 203.572 211.732 203.294 213.359 203.092C233.057 200.654 253.006 200.224 272.792 201.811C274.022 201.91 275.465 202.154 276.01 203.257C276.287 203.82 276.252 204.479 276.21 205.104L273.03 252.85C272.909 254.661 272.585 256.796 270.957 257.611C270.174 258.004 269.255 257.983 268.378 257.953L211.961 256.051C210.859 256.014 209.648 255.933 208.856 255.169C208.083 254.425 207.945 253.259 207.858 252.191C206.706 238.01 206.541 223.75 207.365 209.546C207.464 207.838 207.643 205.976 208.837 204.746ZM239.926 205.853C231.5 205.731 223.07 205.877 214.654 206.292C213.341 206.357 211.837 206.53 211.095 207.612C210.598 208.337 210.594 209.279 210.608 210.157L211.173 245.329C211.215 247.959 212.008 251.423 214.644 251.562L240.214 252.91C240.676 252.935 241.178 252.948 241.552 252.678C242.051 252.319 242.121 251.618 242.146 251.004L242.881 232.77C242.909 232.066 242.891 231.252 242.34 230.81C241.966 230.51 241.451 230.475 240.971 230.456C231.787 230.087 222.563 230.687 213.504 232.242C212.468 232.42 211.891 230.85 212.497 229.994C213.104 229.138 214.252 228.896 215.29 228.731C223.818 227.374 232.453 226.679 241.089 226.654C242.543 226.65 242.997 224.709 242.994 223.26L242.975 211.301C242.971 208.982 242.253 205.887 239.926 205.853ZM267.202 230.415L250.472 230.378C249.349 230.375 248.07 230.442 247.353 231.303C246.846 231.913 246.77 232.762 246.716 233.552L245.632 249.466C245.533 250.921 245.59 252.689 246.855 253.423C247.412 253.746 248.086 253.778 248.731 253.802L265.178 254.418C265.688 254.437 266.24 254.444 266.656 254.149C267.198 253.765 267.308 253.023 267.372 252.364L269.313 232.434C269.358 231.98 269.394 231.49 269.156 231.101C268.779 230.486 267.926 230.416 267.202 230.415ZM268.935 225.591C269.892 224.979 270.174 223.736 270.364 222.619C271.085 218.383 271.663 214.123 272.096 209.849C272.172 209.101 272.203 208.239 271.656 207.722C271.24 207.331 270.62 207.271 270.049 207.232L249.874 205.849C249.146 205.8 248.305 205.793 247.824 206.339C247.438 206.777 247.426 207.417 247.435 207.999L247.673 224.31C247.678 224.704 247.692 225.125 247.918 225.448C248.285 225.973 249.031 226.025 249.674 226.025L266.648 226.028C267.435 226.028 268.272 226.014 268.935 225.591ZM324.948 354.901C323.13 354.947 321.11 355.088 319.86 356.404C320.444 357.567 322.005 357.748 323.311 357.777L369.791 358.794C370.765 358.815 371.099 357.316 370.449 356.593C369.799 355.87 368.723 355.758 367.751 355.697C353.504 354.807 339.218 354.542 324.948 354.901ZM300.939 299.651C296.003 353.043 290.573 406.391 284.651 459.683C284.492 461.111 283.923 462.936 282.481 462.954C201.284 463.967 120.064 463.151 38.9044 460.507C38.0444 460.479 37.1058 460.42 36.4685 459.844C35.6412 459.097 35.6666 457.817 35.7555 456.707L49.0555 290.806C50.0144 289.652 51.7158 289.529 53.2197 289.496C133.207 287.75 213.255 286.005 293.196 289.216C295.077 289.291 297.079 289.41 298.6 290.513C301.277 292.453 301.243 296.368 300.939 299.651ZM260.675 320.477C200.741 314.343 140.326 312.874 80.1634 316.088C79.3908 316.129 78.551 316.198 77.9812 316.72C77.3771 317.272 77.2596 318.163 77.1794 318.976L65.9948 432.272C65.9148 433.083 65.8583 433.981 66.3558 434.627C66.9505 435.4 68.0672 435.483 69.0441 435.5L243.701 438.505C244.78 438.524 245.988 438.493 246.749 437.73C247.381 437.097 247.515 436.137 247.616 435.249L260.675 320.477ZM264.79 320.077C263.995 321.56 263.791 323.277 263.601 324.948L251.372 432.397C251.211 433.813 251.061 435.307 251.64 436.611C252.288 438.071 253.719 439.004 255.076 439.854L280.339 455.677C286.966 402.798 293.598 349.873 296.671 296.671L269.287 315.76C267.564 316.96 265.78 318.229 264.79 320.077ZM268.323 312.222L290.799 295.455C245.282 291.57 199.586 292.23 153.873 292.89C121.408 293.359 88.9341 293.829 56.5104 292.67L70.143 307.521C72.3039 309.875 74.9244 312.425 78.1201 312.225C138.485 308.445 199.166 309.696 259.322 315.96C262.636 316.305 265.655 314.212 268.323 312.222ZM253.531 443.304C250.692 442.378 247.655 442.307 244.669 442.245L69.5419 438.618C66.5884 438.557 63.5378 438.512 60.8037 439.627C58.5453 440.548 56.6742 442.192 54.8499 443.806L39.1649 457.688C78.3437 455.962 117.569 456.985 156.793 458.008H156.794C197.02 459.057 237.244 460.107 277.416 458.19L260.653 447.137C258.395 445.649 256.103 444.143 253.531 443.304ZM69.7629 328.257C70.7421 315.83 63.9892 303.119 53.1241 296.937C48.1696 348.824 43.6802 400.755 39.6566 452.722L56.6482 439.376C58.8859 437.618 61.3097 435.529 61.5327 432.699L69.7629 328.257ZM337.577 298.38C335.82 296.405 333.077 295.348 330.443 295.63C327.458 295.95 324.726 298.007 323.602 300.78C322.478 303.553 323.01 306.924 324.935 309.219C327.761 312.589 333.435 313.054 336.776 310.19C340.117 307.325 340.501 301.666 337.577 298.38ZM328.82 299.504C329.912 298.89 331.232 298.689 332.457 298.953C335.582 299.623 337.44 303.635 335.926 306.439C334.411 309.243 330.027 309.908 327.743 307.679C325.46 305.451 326.037 301.07 328.82 299.504ZM599.186 118.934C595.59 115.808 593.664 111.03 593.486 106.277C593.309 101.524 594.764 96.8094 597.054 92.6372C597.669 91.517 599.393 91.4728 600.416 92.2411C601.439 93.0095 601.915 94.2901 602.278 95.5146C604.506 103.027 604.387 111.213 601.942 118.658C601.855 118.921 601.76 119.194 601.566 119.393C600.942 120.033 599.861 119.521 599.186 118.934ZM593.028 124.199C588.415 124.376 583.774 123.823 579.332 122.568C576.868 121.872 574.137 120.617 573.509 118.142C572.966 116 574.367 113.709 576.322 112.669C578.277 111.629 580.629 111.621 582.812 112.001C587.974 112.898 592.736 115.899 595.764 120.161C596.204 120.78 596.626 121.498 596.518 122.248C596.313 123.683 594.481 124.143 593.028 124.199ZM593.731 128.482L594.098 133.765L581.194 137.636C578.717 138.379 575.967 139.107 573.626 138.009C571.285 136.912 570.322 133.081 572.584 131.83C578.553 128.53 585.448 126.916 592.267 127.224C592.734 127.245 593.267 127.31 593.532 127.694C593.688 127.92 593.712 128.209 593.731 128.482ZM619.723 144.416C614.071 141.779 610.209 136.49 606.599 131.415C606.433 131.181 606.259 130.92 606.289 130.635C606.362 129.957 607.342 129.933 608.003 130.107C614.44 131.811 621.267 133.746 625.687 138.713C626.627 139.769 627.476 141.102 627.261 142.497C627.032 143.985 625.591 145.074 624.098 145.301C622.605 145.528 621.091 145.054 619.723 144.416ZM615.234 151.411C615.112 152.822 614.228 154.254 612.854 154.61C612.015 154.828 611.118 154.625 610.319 154.29C606.227 152.571 604.366 147.864 603.44 143.535C602.672 139.947 602.253 136.286 602.19 132.618C607.505 136.252 611.758 141.41 614.307 147.312C614.868 148.612 615.356 150.001 615.234 151.411ZM616.154 92.1724C617.261 91.8896 618.679 92.7801 618.443 93.8957C616.51 103.052 613.537 113.078 605.477 117.874C606.071 109.512 608.918 101.32 613.639 94.3822C614.281 93.4388 615.046 92.4553 616.154 92.1724ZM631.624 131.788C630.249 131.771 628.877 131.657 627.51 131.505C620.749 130.754 614.091 129.091 607.773 126.576C615.577 121.758 626.598 122.933 633.204 129.287C633.538 129.609 633.883 129.988 633.899 130.451C633.933 131.437 632.614 131.799 631.624 131.788ZM592.57 153.881C592.533 148.274 594.852 142.688 598.852 138.745C598.729 138.287 599.757 138.563 599.421 138.897C601.2 143.896 601.587 149.379 600.529 154.578C600.048 156.942 598.636 159.726 596.218 159.62C593.705 159.51 592.586 156.388 592.57 153.881ZM594.09 176.729L575.845 186.22C575.373 184.257 575.662 182.123 576.639 180.356C578.717 176.599 583.265 175.089 587.399 173.897C589.701 173.234 592.051 172.564 594.445 172.66C594.982 172.682 595.559 172.76 595.951 173.127C597.116 174.217 595.507 175.991 594.09 176.729ZM624.314 107.295C625.621 106.695 627.452 106.284 628.266 107.467C629.056 108.615 628.097 110.138 627.113 111.125C622.832 115.417 617.346 118.281 611.87 120.897C610.365 121.616 607.973 121.954 607.557 120.343C612.031 114.781 617.817 110.275 624.314 107.295ZM600.914 129.83C599.334 130.345 597.227 129.6 596.932 127.969C596.745 126.932 597.325 125.907 598.023 125.115C599.456 123.486 601.492 122.397 603.646 122.107C604.172 122.036 604.737 122.017 605.204 122.271C606.706 123.087 605.769 125.369 604.686 126.69C603.634 127.972 602.494 129.316 600.914 129.83Z" fill="#00160A"/>
<path fill-rule="evenodd" clip-rule="evenodd" d="M589.058 210.753C574.457 217.12 557.538 217.984 542.366 213.137C539.171 228.903 526.878 241.374 522.167 256.754C520.275 262.931 519.658 269.426 519.375 275.881C517.635 315.575 528.107 354.673 538.49 393.022C538.96 394.758 539.49 396.595 540.824 397.8C542.277 399.112 544.361 399.39 546.309 399.584C565.305 401.477 584.523 401.144 603.443 398.593C606.654 398.16 608.065 394.379 608.788 391.217C617.029 355.145 620.553 317.996 619.241 281.016C618.927 272.145 618.276 263.041 614.518 255.001C610.402 246.197 602.938 239.461 597.551 231.374C593.404 225.147 590.5 218.096 589.058 210.753Z" fill="white"/>
<path fill-rule="evenodd" clip-rule="evenodd" d="M562.28 208.609C563.249 210.205 563.43 213.206 561.567 213.021C555.439 201.353 548.052 190.34 539.576 180.234C539.779 181.776 539.983 183.319 540.186 184.861C540.599 187.991 541.008 191.21 540.234 194.272C539.461 197.334 537.221 200.244 534.11 200.851C530.999 201.458 527.393 198.863 527.774 195.728C527.785 199.159 524.185 202.065 520.786 201.504C517.388 200.943 514.934 197.226 515.596 193.859C515.898 192.321 513.781 191.323 512.276 191.781C510.77 192.238 509.632 193.473 508.205 194.133C503.803 196.169 498.598 191.566 498.348 186.739C498.098 181.913 502.143 172.556 505.426 168.997C500.819 168.255 497.111 163.823 497.208 159.177C497.306 154.53 501.197 150.257 505.831 149.707C502.307 145.156 498.706 138.764 502.136 134.142C504.641 130.766 509.928 130.541 513.594 132.614C517.26 134.686 519.621 138.434 521.572 142.155C521.521 139.123 521.482 136.015 522.488 133.152C523.494 130.289 525.778 127.674 528.778 127.148C531.778 126.621 535.222 128.911 535.157 131.943C535.107 134.292 533.838 137.776 536.163 138.177C537.419 135.004 541.808 133.806 544.831 135.412C547.853 137.019 549.349 140.742 548.939 144.129C548.53 147.516 546.496 150.54 543.955 152.828C547.694 153.067 552.249 153.892 553.45 157.426C554.617 160.859 551.555 164.36 548.244 165.864C544.933 167.368 541.126 167.818 538.139 169.888C542.862 172.871 547.695 180.031 551.803 187.414C557.087 196.913 561.172 206.783 562.28 208.609Z" fill="white"/>
<path fill-rule="evenodd" clip-rule="evenodd" d="M537.129 169.887C541.679 173.485 545.804 177.614 549.394 182.162C550.367 178.451 551.509 174.471 554.528 172.089C557.547 169.707 563.033 170.212 564.187 173.871C564.613 175.22 564.374 176.681 564.057 178.059C562.731 183.817 560.078 189.269 556.361 193.873C558.331 197.118 560.301 200.363 562.271 203.608C563.239 205.204 563.421 208.206 561.557 208.02C555.429 196.352 548.043 185.34 539.566 175.234C539.77 176.776 539.973 178.318 540.176 179.86C540.589 182.99 540.998 186.21 540.225 189.272C539.452 192.333 537.211 195.243 534.1 195.85C530.989 196.458 527.383 193.862 527.764 190.728C527.776 194.158 524.175 197.064 520.777 196.503C517.378 195.942 514.924 192.225 515.586 188.859C515.889 187.32 513.772 186.323 512.266 186.78C510.76 187.238 509.622 188.472 508.195 189.133C503.794 191.169 498.588 186.565 498.338 181.739C498.088 176.912 501.133 172.555 504.417 168.997C499.809 168.254 496.101 163.823 496.199 159.176C496.296 154.529 500.187 150.256 504.822 149.706C501.297 145.155 497.696 138.764 501.126 134.142C503.631 130.766 508.919 130.54 512.585 132.613C516.251 134.686 518.611 138.434 520.562 142.155C520.511 139.122 520.472 136.015 521.478 133.152C522.484 130.289 524.768 127.673 527.768 127.147C530.768 126.621 534.212 128.91 534.147 131.943C534.097 134.292 532.828 137.776 535.153 138.177C536.41 135.003 540.799 133.805 543.821 135.412C546.843 137.018 548.34 140.741 547.93 144.128C547.52 147.515 545.486 150.539 542.946 152.828C546.684 153.066 551.239 153.892 552.44 157.425C553.607 160.858 550.546 164.359 547.234 165.863C543.923 167.367 540.116 167.817 537.129 169.887ZM504.585 135.069C501.883 137.118 502.275 141.398 503.992 144.317C507 149.433 512.724 152.226 518.158 154.647C519.332 155.169 521.099 155.471 521.563 154.277C521.777 153.725 521.555 153.11 521.334 152.56C519.728 148.555 518.116 144.538 516.032 140.757C514.862 138.634 513.48 136.524 511.433 135.216C509.386 133.908 506.52 133.602 504.585 135.069ZM499.266 158.191C498.564 161.95 502.248 165.382 506.053 165.899C509.858 166.416 513.608 164.88 517.139 163.376C518.071 162.979 519.08 162.511 519.514 161.599C520.396 159.746 518.36 157.893 516.596 156.834C513.657 155.07 510.567 153.257 507.141 153.052C503.715 152.847 499.894 154.831 499.266 158.191ZM544.588 142.324C544.743 141.567 544.846 140.755 544.549 140.041C544.032 138.796 542.483 138.298 541.133 138.388C537.029 138.663 534.273 142.652 532.63 146.407C531.172 149.743 530.075 153.236 529.365 156.806C536.741 155.649 543.091 149.609 544.588 142.324ZM530.851 170.542C528.573 170.904 528.324 174.048 528.666 176.319C529.006 178.574 529.346 180.829 529.687 183.084C530.237 186.731 531.215 190.965 534.601 192.458C538.127 186.604 538.088 178.797 534.503 172.978C533.689 171.657 532.389 170.299 530.851 170.542M520.426 191.998C520.69 192.335 521.002 192.674 521.42 192.77C522.453 193.009 523.123 191.725 523.359 190.694C524.959 183.714 524.899 176.478 524.832 169.318C524.781 168.788 523.939 169.092 523.615 169.517C521.143 172.768 519.007 176.377 518.161 180.367C517.316 184.357 517.903 188.786 520.426 191.998ZM533.954 158.352C533.427 158.625 532.89 158.911 532.493 159.351C531.179 160.81 532.098 163.348 533.825 164.288C535.552 165.229 537.676 164.986 539.584 164.505C542.403 163.796 545.105 162.624 547.547 161.052C548.488 160.446 549.506 159.481 549.199 158.408C549.066 157.943 548.7 157.582 548.319 157.283C544.319 154.151 538.47 156.019 533.954 158.352M525.404 154.365C528.527 147.53 530.1 139.997 529.973 132.488C529.966 132.047 529.945 131.581 529.701 131.213C528.848 129.926 526.868 131.228 526.095 132.564C522.299 139.124 522.031 147.58 525.404 154.365M519.82 169.989C520.59 169.673 520.266 168.368 519.479 168.096C518.692 167.825 517.845 168.212 517.104 168.591C512.529 170.934 507.757 173.556 505.158 177.977C504.277 179.476 503.775 181.604 505.053 182.785C506.218 183.861 508.145 183.416 509.448 182.509C513.973 179.356 514.712 172.081 519.82 169.989ZM559.629 173.575C558.937 172.856 557.742 173.529 557.031 174.229C554.693 176.527 552.624 179.278 551.988 182.488C551.351 185.697 552.468 189.412 555.292 191.084C558.594 186.376 560.28 180.565 560.01 174.828C559.989 174.382 559.939 173.897 559.629 173.575ZM522.643 160.513C523.622 163.471 525.658 166.071 528.3 167.738C529.136 168.266 529.948 166.979 530.006 165.995C530.187 162.917 528.955 159.784 526.723 157.647C525.839 156.801 524.526 156.078 523.434 156.634C522.145 157.29 522.19 159.144 522.643 160.513H522.643Z" fill="#FFB61D"/>
<path fill-rule="evenodd" clip-rule="evenodd" d="M410.362 305.893C406.094 306.007 401.768 306.152 397.685 307.394C407.546 356.17 408.556 406.228 413.702 455.719C413.801 456.665 413.932 457.683 414.586 458.376C415.328 459.163 416.514 459.298 417.595 459.382C487.61 464.873 558.014 465.435 628.109 461.064C628.997 461.008 629.96 460.921 630.614 460.32C631.403 459.594 631.46 458.392 631.453 457.322C631.335 438.565 628.656 419.929 625.983 401.362C621.838 372.572 617.693 343.782 613.547 314.991C613.39 313.896 613.165 312.684 612.275 312.022C611.612 311.528 610.733 311.465 609.906 311.419C543.447 307.774 476.898 304.127 410.362 305.893Z" fill="white"/>
<circle cx="576.5" cy="392" r="2" fill="#FFB61D"/>
<circle cx="562" cy="392" r="2" fill="#FFB61D"/>
<circle cx="524" cy="412.5" r="1.5" fill="#FFB61D"/>
<circle cx="511.5" cy="412.5" r="1.5" fill="#FFB61D"/>
<circle cx="473" cy="392" r="3" fill="#FFB61D"/>
<circle cx="451" cy="393" r="3" fill="#FFB61D"/>
<path fill-rule="evenodd" clip-rule="evenodd" d="M630.925 466.026C559.251 470.289 487.257 469.219 415.742 462.828C413.78 462.653 411.626 462.383 410.296 460.935C409.071 459.601 408.899 457.643 408.787 455.839C405.689 406.108 400.942 356.48 394.557 307.061C394.15 303.913 398.297 302.418 401.467 302.101C445.112 297.741 488.961 299.832 532.845 301.925C560.902 303.263 588.974 304.602 617.015 304.256C618.858 304.233 619.506 306.655 619.594 308.488C620.702 331.647 624.549 354.575 628.393 377.49C632.875 404.206 637.354 430.905 637.489 457.934C637.502 460.53 637.261 463.549 635.108 465.01C633.906 465.826 632.376 465.94 630.925 466.026ZM410.362 305.893C406.094 306.007 401.768 306.152 397.685 307.394C404.406 340.642 407.015 374.485 409.625 408.338C410.844 424.15 412.064 439.963 413.702 455.719C413.8 456.665 413.932 457.683 414.586 458.376C415.328 459.163 416.514 459.298 417.595 459.382C487.61 464.873 558.014 465.435 628.109 461.064C628.997 461.008 629.96 460.921 630.613 460.32C631.403 459.594 631.459 458.392 631.453 457.322C631.335 438.565 628.656 419.929 625.983 401.362L613.547 314.991C613.39 313.896 613.165 312.684 612.275 312.022C611.612 311.528 610.732 311.465 609.906 311.419C543.447 307.774 476.898 304.127 410.362 305.893ZM454.663 376.414C456.388 376.334 457.135 378.531 457.343 380.238C457.699 383.172 457.482 387.048 454.64 387.896C452.177 385.608 451.243 381.825 452.361 378.66C452.74 377.587 453.523 376.466 454.663 376.414ZM563.133 387.46C560.083 387.198 562.34 376.807 564.054 378.056C565.769 379.304 566.183 387.721 563.133 387.46ZM577.071 386.055C573.392 386.055 574.646 376.496 577.071 376.496C578.366 376.496 579.422 386.055 577.071 386.055ZM468.761 386.176C469.403 384.897 469.803 383.498 469.934 382.075C470.037 380.96 469.954 379.765 469.317 378.844C468.68 377.922 467.348 377.412 466.381 377.982C465.779 378.336 465.443 379.009 465.23 379.673C464.544 381.811 464.844 384.241 466.029 386.15C466.414 386.771 467.071 387.402 467.777 387.205C468.249 387.073 468.542 386.612 468.761 386.176ZM519.401 406.401C519.659 404.388 520.45 401.664 522.306 402.498C523.062 402.838 523.444 403.683 523.637 404.485C524.044 406.18 523.711 408.284 522.178 409.124C520.644 409.963 519.143 408.414 519.401 406.401ZM458.071 393.297C456.482 394.74 454.102 396.428 452.482 395.021C452.73 393.71 453.47 392.496 454.524 391.674C453.147 390.529 450.772 391.224 450.015 392.844C449.259 394.464 450.039 396.546 451.548 397.512C453.056 398.478 455.087 398.41 456.688 397.605C457.102 397.396 457.534 397.143 457.972 396.886C459.662 395.894 461.452 394.844 462.77 396.055C465.756 398.798 471.196 398.073 473.353 394.645C473.953 393.693 474.306 392.454 473.792 391.453C473.279 390.452 471.622 390.117 471.035 391.077C470.886 391.32 470.825 391.601 470.765 391.882C470.744 391.975 470.724 392.068 470.701 392.16C470.317 393.673 468.906 394.869 467.346 395.006C465.785 395.143 464.187 394.211 463.542 392.789C462.658 390.837 459.659 391.855 458.071 393.297ZM513.721 402.82C514.031 405.027 513.494 407.341 512.243 409.189C512.01 409.533 511.701 409.892 511.284 409.919C510.846 409.948 510.479 409.598 510.219 409.245C508.751 407.258 508.807 404.29 510.349 402.359C511.067 401.46 512.538 400.823 513.299 401.686C513.57 401.994 513.664 402.415 513.721 402.82ZM429.665 438.142C429.789 443.252 435.917 445.741 440.969 446.636C455.119 449.144 469.573 449.234 483.945 449.318C527.075 449.568 570.253 449.816 613.284 446.891C614.796 446.788 616.492 446.589 617.433 445.405C618.313 444.298 618.206 442.732 618.053 441.327C613.764 401.938 608.074 362.7 600.996 323.711C600.575 321.388 597.587 320.739 595.22 320.609C537.695 317.447 480.046 317.519 422.434 317.592C420.808 317.594 419.088 317.622 417.704 318.473C414.563 320.405 415.032 325.016 415.858 328.6C424.138 364.528 428.771 401.289 429.665 438.142ZM556.409 404.057C550.442 408.483 545.924 414.817 543.689 421.886C536.878 418.742 533.793 409.45 537.38 402.881C541.949 394.513 543.552 383.057 536.892 376.222C532.599 371.816 525.781 370.534 519.743 371.767C507.786 374.21 498.736 386.51 499.997 398.605C500.199 400.544 500.629 402.448 501.059 404.353C501.505 406.327 501.951 408.301 502.143 410.313C502.519 414.265 501.679 418.682 498.575 421.17C494.026 413.333 486.64 407.17 478.096 404.085C483.727 390.581 489.279 374.762 482.171 361.967C479.735 357.582 475.999 354.046 472.003 351C466.757 347.002 460.51 343.612 453.922 344.067C442.812 344.835 435.13 356.627 434.907 367.72C434.684 378.813 439.893 389.208 444.975 399.08L432.74 414.278C430.716 383.128 426.23 352.136 419.338 321.685C476.578 321.895 533.816 322.815 591.033 324.444C592.3 324.481 593.693 324.567 594.606 325.443C595.393 326.199 595.614 327.351 595.796 328.424L613.315 431.817C605.613 418.991 595.751 407.457 584.267 397.841C581.416 407.037 578.9 416.335 576.724 425.712L568.035 412.144C574.949 408.018 579.52 400.967 583.459 393.962C588.073 385.754 592.254 376.939 592.598 367.538C592.942 358.137 588.584 348.012 580.024 344.042C584.933 340.748 585.111 332.638 580.698 328.709C576.284 324.78 568.752 325.481 564.686 329.765C560.619 334.05 560.134 341.061 563.013 346.213C553.767 350.19 547.249 359.796 546.992 369.826C546.754 379.102 551.355 387.748 555.999 395.792C557.518 398.422 558.851 402.245 556.409 404.057ZM532.741 412.132L548.005 443.515C549.315 440.824 548.024 437.968 546.726 435.094C546.194 433.917 545.661 432.738 545.305 431.565C542.69 422.958 549.85 414.728 556.406 408.546C557.444 407.567 558.726 406.512 560.128 406.793C561.266 407.021 562.031 408.056 562.682 409.013C567.41 415.959 572.217 423.074 574.403 431.18C574.414 431.222 574.425 431.263 574.436 431.305C574.749 432.468 575.083 433.713 576.032 434.447C577.014 435.208 578.86 434.856 578.973 433.622C579.974 422.672 582.373 411.85 586.095 401.498L610.918 433.215C612.654 435.432 614.489 438.21 613.5 440.843C612.332 443.955 608.216 444.489 604.881 444.513L496.815 445.266C478.691 445.393 460.502 445.516 442.52 443.25C440.638 443.013 438.65 442.703 437.196 441.489C435.893 440.401 435.221 438.747 434.729 437.125C432.356 429.309 433.147 420.588 436.887 413.322C438.636 409.922 441.247 406.666 444.915 405.55C448.583 404.434 453.308 406.374 454.007 410.131C455.025 415.602 459.72 420.443 465.294 420.798C470.868 421.154 476.459 416.219 476.023 410.671C475.849 408.462 479.386 408.487 481.283 409.643C491.52 415.878 496.79 429.218 493.565 440.731C493.032 442.633 496.338 443.54 497.655 442.064C498.888 440.682 498.798 438.647 498.715 436.774C498.709 436.647 498.704 436.52 498.698 436.394C498.404 429.208 500.732 421.944 505.154 416.258C506.729 417.315 507.909 418.893 509.077 420.455C510.64 422.543 512.18 424.602 514.611 425.339C518.388 426.485 522.24 423.735 524.725 420.679C525.327 419.939 525.902 419.164 526.478 418.387C528.28 415.956 530.09 413.515 532.741 412.132ZM454.029 360.41C450.681 367.267 445.832 373.391 439.918 378.232C438.803 373.193 438.528 367.97 439.109 362.843C439.555 358.91 440.598 354.849 443.295 351.943C446.776 348.192 452.479 347.106 457.502 348.13C462.526 349.155 466.985 351.992 471.034 355.127C474.441 357.765 477.72 360.736 479.757 364.527C484.347 373.068 481.704 383.512 478.964 392.807C477.282 398.511 475.04 404.882 469.595 407.314C464.875 409.422 459.253 407.731 454.926 404.909C447.754 400.231 442.712 392.435 441.401 383.996C441.186 382.612 441.183 380.938 442.325 380.124C447.742 376.262 452.211 371.092 455.24 365.183C460.355 372.195 469.135 376.389 477.825 375.972C479.689 375.882 482.169 374.562 481.359 372.887C470.903 373.976 460.029 369.011 454.029 360.41ZM564.306 404.245C560.48 398.609 557.182 392.618 554.468 386.374C553.792 384.819 553.309 382.661 554.723 381.718C561.574 377.148 566.764 370.16 569.149 362.297L574.125 368.494C575.734 370.499 577.379 372.536 579.52 373.964C581.662 375.391 584.419 376.137 586.856 375.305C587.76 374.996 587.999 376.525 587.666 377.417C583.882 387.567 578.435 397.099 571.606 405.522C571.006 406.26 570.348 407.025 569.442 407.321C567.397 407.99 565.512 406.022 564.306 404.245ZM572.183 347.379C574.62 347.132 577.16 347.233 579.399 348.223C581.37 349.093 582.997 350.605 584.333 352.291C588.334 357.339 589.909 364.213 588.504 370.49C588.388 371.008 588.237 371.551 587.852 371.919C587.237 372.507 586.258 372.449 585.424 372.273C580.578 371.25 576.607 367.582 574.204 363.267C574.084 363.053 573.967 362.836 573.849 362.617C573.143 361.308 572.421 359.97 571.187 359.165C569.748 358.225 567.343 358.541 566.876 360.191C564.65 368.055 559.52 375.068 552.689 379.589C551.166 377.992 550.465 375.778 550.155 373.597C549.257 367.296 551.354 360.687 555.524 355.865C559.694 351.043 565.827 348.023 572.183 347.379ZM525.094 375.602C530.827 376.324 536.097 380.799 537.006 386.483C537.427 389.111 536.958 391.79 536.491 394.409C536.272 395.636 536.001 396.959 535.066 397.786C533.919 398.802 532.178 398.716 530.675 398.406C526.395 397.523 522.412 395.269 519.459 392.059C519.28 391.865 519.104 391.666 518.928 391.468C518.145 390.586 517.357 389.697 516.32 389.152C515.049 388.484 513.244 388.532 512.415 389.701C510.088 392.984 506.998 395.726 503.457 397.651C503.877 391.91 505.823 386.158 509.66 381.855C513.498 377.551 519.362 374.88 525.094 375.602ZM513.825 393.671C514.557 392.28 516.62 393.55 517.651 394.738C521.71 399.416 527.966 402.117 534.168 401.869C530.951 408.304 526.534 414.141 521.209 418.994C519.933 420.157 518.405 421.333 516.681 421.19C515.176 421.065 513.954 419.961 512.928 418.857C509.745 415.433 507.205 411.417 505.48 407.078C504.798 405.363 504.438 403 506.013 402.03C509.302 400.004 512.031 397.084 513.825 393.671ZM572.53 344.212C568.804 344.846 564.659 341.731 564.92 337.974C565.103 335.346 567.168 333.198 569.457 331.879C571.121 330.921 573.034 330.261 574.946 330.46C576.857 330.66 578.738 331.865 579.331 333.686C579.6 334.512 579.596 335.405 579.488 336.267C579.02 340.004 576.257 343.578 572.53 344.212ZM459.011 410.258C463.707 412.169 469.332 411.631 473.577 408.864C473.836 410.005 473.191 411.136 472.572 412.131C470.588 415.319 467.468 418.978 463.859 417.904C461.965 417.339 460.818 415.672 459.659 413.987C458.636 412.499 457.603 410.997 456.036 410.228C456.725 409.418 458.024 409.856 459.011 410.258Z" fill="#00160A"/>
</svg>
